<svg viewBox="0 0 240 150" xmlns="http://www.w3.org/2000/svg">
  <rect x="1" y="1" width="238" height="148" rx="10" fill="#ffffff" stroke="#E7E3DC"/>
  <rect x="16" y="18" width="30" height="9" rx="4.5" fill="#F0E1DA"/>
  <rect x="22" y="21" width="18" height="3" rx="1.5" fill="#D97757"/>
  <rect x="16" y="36" width="120" height="10" rx="3" fill="#2B3038"/>
  <rect x="16" y="52" width="88" height="10" rx="3" fill="#2B3038"/>
  <rect x="16" y="74" width="96" height="5" rx="2.5" fill="#C7C2B9"/>
  <g>
    <circle cx="19" cy="90" r="2.4" fill="#D97757"/>
    <rect x="26" y="88" width="86" height="4" rx="2" fill="#D8D3CA"/>
    <circle cx="19" cy="102" r="2.4" fill="#D97757"/>
    <rect x="26" y="100" width="74" height="4" rx="2" fill="#D8D3CA"/>
    <circle cx="19" cy="114" r="2.4" fill="#D97757"/>
    <rect x="26" y="112" width="80" height="4" rx="2" fill="#D8D3CA"/>
  </g>
  <rect x="140" y="70" width="84" height="64" rx="7" fill="#F6F4EF"/>
  <rect x="150" y="112" width="12" height="14" rx="2" fill="#E7CEC5"/>
  <rect x="167" y="100" width="12" height="26" rx="2" fill="#E2B9A8"/>
  <rect x="184" y="90" width="12" height="36" rx="2" fill="#D97757"/>
  <rect x="201" y="104" width="12" height="22" rx="2" fill="#E2B9A8"/>
  <rect x="150" y="82" width="30" height="4" rx="2" fill="#CFCABF"/>
</svg>
