<svg viewBox="0 0 240 150" xmlns="http://www.w3.org/2000/svg">
  <rect x="1" y="1" width="238" height="148" rx="10" fill="#ffffff" stroke="#E7E3DC"/>
  <circle cx="18" cy="17" r="3.5" fill="#D97757"/>
  <rect x="26" y="15" width="16" height="4" rx="2" fill="#D8D3CA"/>
  <rect x="47" y="15" width="16" height="4" rx="2" fill="#D8D3CA"/>
  <rect x="68" y="15" width="16" height="4" rx="2" fill="#D8D3CA"/>
  <rect x="196" y="11" width="30" height="12" rx="6" fill="#D97757"/>
  <rect x="16" y="44" width="96" height="9" rx="3" fill="#2B3038"/>
  <rect x="16" y="58" width="74" height="9" rx="3" fill="#2B3038"/>
  <rect x="16" y="75" width="104" height="5" rx="2.5" fill="#C7C2B9"/>
  <rect x="16" y="84" width="82" height="5" rx="2.5" fill="#C7C2B9"/>
  <rect x="16" y="98" width="46" height="15" rx="7.5" fill="#D97757"/>
  <rect x="26" y="104" width="26" height="4" rx="2" fill="#ffffff" opacity=".9"/>
  <rect x="132" y="42" width="92" height="60" rx="7" fill="#F3F1EC"/>
  <circle cx="152" cy="62" r="7" fill="#EAD9D1"/>
  <path d="M150 78 l10 -11 8 9 9 -13 13 17 z" fill="#E3CFC6"/>
  <g>
    <rect x="16" y="122" width="64" height="18" rx="5" fill="#F6F4EF"/>
    <circle cx="26" cy="131" r="3.5" fill="#D97757"/>
    <rect x="33" y="128" width="40" height="3" rx="1.5" fill="#CFCABF"/>
    <rect x="33" y="134" width="30" height="3" rx="1.5" fill="#DDD8CF"/>
  </g>
  <g>
    <rect x="88" y="122" width="64" height="18" rx="5" fill="#F6F4EF"/>
    <circle cx="98" cy="131" r="3.5" fill="#D97757"/>
    <rect x="105" y="128" width="40" height="3" rx="1.5" fill="#CFCABF"/>
    <rect x="105" y="134" width="30" height="3" rx="1.5" fill="#DDD8CF"/>
  </g>
  <g>
    <rect x="160" y="122" width="64" height="18" rx="5" fill="#F6F4EF"/>
    <circle cx="170" cy="131" r="3.5" fill="#D97757"/>
    <rect x="177" y="128" width="40" height="3" rx="1.5" fill="#CFCABF"/>
    <rect x="177" y="134" width="30" height="3" rx="1.5" fill="#DDD8CF"/>
  </g>
</svg>
