<svg viewBox="0 0 240 150" xmlns="http://www.w3.org/2000/svg">
  <rect x="1" y="1" width="238" height="148" rx="10" fill="#ffffff" stroke="#E7E3DC"/>
  <!-- source PDF (left) -->
  <g>
    <path d="M28 26 h34 l14 14 v78 a4 4 0 0 1 -4 4 h-44 a4 4 0 0 1 -4 -4 v-88 a4 4 0 0 1 4 -4 z" fill="#F6F4EF" stroke="#E0DBD2"/>
    <path d="M62 26 v14 h14 z" fill="#E7E3DC"/>
    <rect x="32" y="66" width="34" height="4" rx="2" fill="#C7C2B9"/>
    <rect x="32" y="75" width="40" height="4" rx="2" fill="#DDD8CF"/>
    <rect x="32" y="84" width="30" height="4" rx="2" fill="#DDD8CF"/>
    <rect x="32" y="97" width="40" height="4" rx="2" fill="#DDD8CF"/>
    <rect x="34" y="44" width="18" height="9" rx="2" fill="#E7CEC5"/>
    <rect x="38" y="47" width="10" height="3" rx="1.5" fill="#D97757"/>
  </g>
  <!-- arrow -->
  <path d="M92 76 h20 m-6 -5 l6 5 -6 5" fill="none" stroke="#D97757" stroke-width="3" stroke-linecap="round" stroke-linejoin="round"/>
  <!-- table (right) -->
  <g>
    <rect x="126" y="30" width="96" height="58" rx="6" fill="#ffffff" stroke="#E0DBD2"/>
    <rect x="126" y="30" width="96" height="14" rx="6" fill="#D97757"/>
    <rect x="126" y="38" width="96" height="6" fill="#D97757"/>
    <line x1="126" y1="58" x2="222" y2="58" stroke="#EDE9E2"/>
    <line x1="126" y1="73" x2="222" y2="73" stroke="#EDE9E2"/>
    <line x1="158" y1="44" x2="158" y2="88" stroke="#EDE9E2"/>
    <line x1="190" y1="44" x2="190" y2="88" stroke="#EDE9E2"/>
    <rect x="132" y="35" width="18" height="4" rx="2" fill="#ffffff" opacity=".9"/>
    <rect x="164" y="35" width="18" height="4" rx="2" fill="#ffffff" opacity=".9"/>
    <rect x="196" y="35" width="16" height="4" rx="2" fill="#ffffff" opacity=".9"/>
    <rect x="132" y="49" width="18" height="4" rx="2" fill="#D8D3CA"/>
    <rect x="164" y="49" width="18" height="4" rx="2" fill="#DDD8CF"/>
    <rect x="196" y="49" width="14" height="4" rx="2" fill="#DDD8CF"/>
    <rect x="132" y="64" width="18" height="4" rx="2" fill="#D8D3CA"/>
    <rect x="164" y="64" width="18" height="4" rx="2" fill="#DDD8CF"/>
    <rect x="196" y="64" width="14" height="4" rx="2" fill="#DDD8CF"/>
    <rect x="132" y="79" width="18" height="4" rx="2" fill="#D8D3CA"/>
    <rect x="164" y="79" width="18" height="4" rx="2" fill="#DDD8CF"/>
    <rect x="196" y="79" width="14" height="4" rx="2" fill="#DDD8CF"/>
  </g>
  <!-- summary doc chip -->
  <rect x="126" y="100" width="96" height="34" rx="6" fill="#F6F4EF"/>
  <rect x="134" y="108" width="10" height="13" rx="2" fill="#E7CEC5"/>
  <rect x="150" y="108" width="60" height="4" rx="2" fill="#C7C2B9"/>
  <rect x="150" y="116" width="50" height="4" rx="2" fill="#DDD8CF"/>
  <rect x="150" y="124" width="56" height="4" rx="2" fill="#DDD8CF"/>
</svg>
